<svg version="1.2" xmlns="http://www.w3.org/2000/svg" viewBox="0 0 1268 262" width="1268" height="262">
	<title>Новий проєкт</title>
	<style>
		.s0 { fill: #ffffff } 
	</style>
	<path id="Stuff" class="s0" aria-label="Stuff"  d="m270.6 0.1v80.6h-106.4q-3.7 1.2-3.7 4.8 0 2 1.3 4l31.4 17.7q49.2 27.5 49.2 74.2 0 33.4-23.8 57.2-23.4 23.4-56.8 23.4h-161.2v-80.6h134.6q3.6-1.2 3.6-4.8 0-2.1-1.2-4.1l-31.5-17.7q-49.1-27.4-49.1-74.1 0-33.5 23.3-56.9 23.8-23.8 57.3-23.8zm211.6 0v80.6l-80.6 0.1v181.3h-80.6v-181.4l-108.9 0.1v-80.7zm262 0.1v141q0 50-35.5 85.4-35.4 35.5-85.4 35.5-50 0-85.4-35.5-35.5-35.4-35.5-85.4v-141h80.6v141q0 16.5 11.7 28.6 12.1 11.7 28.6 11.7 16.5 0 28.2-11.7 12.1-12.1 12.1-28.6v-141zm261.9 0v80.5l-161.2 0.1v20.1h120.9v60.4h-120.9v100.8h-80.6v-261.9zm262-0.1v80.6h-161.2v20.2h120.9v60.4h-120.9v100.8h-80.6v-261.9z"/>
</svg>